{"title":"Avril Lavigne Ft. Chad Kroeger - Let Me Go [Music Video] 720p [S","uid":9101212,"size":63074723,"categoryP":"video","categoryS":"music_videos","magnet":"?xt=urn:btih:5e9565b69af2051c19c402bf7905eb62ca8ba0ac&amp;dn=Avril+Lavigne+Ft.+Chad+Kroeger+-+Let+Me+Go+%5BMusic+Video%5D+720p+%5BS&amp;tr=udp%3A%2F%2Ftracker.openbittorrent.com%3A80&amp;tr=udp%3A%2F%2Fopen.demonii.com%3A1337&amp;tr=udp%3A%2F%2Ftracker.coppersurfer.tk%3A6969&amp;tr=udp%3A%2F%2Fexodus.desync.com%3A6969","seeders":1,"leechers":0,"uploader":"Sbyky","files":1,"time":1382771625,"description":"[IMG]http://cdn.piczend.com/images/BVM4oL7K/1382762539_letmego.jpg[/IMG]\n\nGeneral\nComplete name                            : Avril Lavigne Ft. Chad Kroeger - Let Me Go [Music Video] 720p [Sbyky].MP4\nFormat                                   : MPEG-4\nFormat profile                           : Base Media / Version 2\nCodec ID                                 : mp42\nFile size                                : 60.2 MiB\nDuration                                 : 5mn 5s\nOverall bit rate mode                    : Variable\nOverall bit rate                         : 1 653 Kbps\nEncoded date                             : UTC 2013-10-15 06:03:29\nTagged date                              : UTC 2013-10-15 06:03:29\n\nVideo\nID                                       : 1\nFormat                                   : AVC\nFormat/Info                              : Advanced Video Codec\nFormat profile                           : &lt;a class=&quot;__cf_email__&quot; href=&quot;/cdn-cgi/l/email-protection&quot; data-cfemail=&quot;c588a4acab8589f6ebf4&quot;&gt;[email&amp;#160;protected]&lt;/a&gt;&lt;script cf-hash='f9e31' type=&quot;text/javascript&quot;&gt;\n/* &lt;![CDATA[ */!function(){try{var t=&quot;currentScript&quot;in document?document.currentScript:function(){for(var t=document.getElementsByTagName(&quot;script&quot;),e=t.length;e--;)if(t[e].getAttribute(&quot;cf-hash&quot;))return t[e]}();if(t&amp;&amp;t.previousSibling){var e,r,n,i,c=t.previousSibling,a=c.getAttribute(&quot;data-cfemail&quot;);if(a){for(e=&quot;&quot;,r=parseInt(a.substr(0,2),16),n=2;a.length-n;n+=2)i=parseInt(a.substr(n,2),16)^r,e+=String.fromCharCode(i);e=document.createTextNode(e),c.parentNode.replaceChild(e,c)}}}catch(u){}}();/* ]]&gt; */&lt;/script&gt;\nFormat settings, CABAC                   : Yes\nFormat settings, ReFrames                : 3 frames\nCodec ID                                 : avc1\nCodec ID/Info                            : Advanced Video Coding\nDuration                                 : 5mn 5s\nSource duration                          : 5mn 5s\nBit rate                                 : 1 398 Kbps\nWidth                                    : 1 280 pixels\nHeight                                   : 720 pixels\nDisplay aspect ratio                     : 16:9\nFrame rate mode                          : Variable\nFrame rate                               : 23.976 fps\nMinimum frame rate                       : 23.974 fps\nMaximum frame rate                       : 24.071 fps\nColor space                              : YUV\nChroma subsampling                       : 4:2:0\nBit depth                                : 8 bits\nScan type                                : Progressive\nBits/(Pixel*Frame)                       : 0.063\nStream size                              : 50.8 MiB (85%)\nSource stream size                       : 50.8 MiB (85%)\nEncoded date                             : UTC 2013-10-15 06:03:29\nTagged date                              : UTC 2013-10-15 06:03:29\n\nAudio\nID                                       : 2\nFormat                                   : AAC\nFormat/Info                              : Advanced Audio Codec\nFormat profile                           : LC\nCodec ID                                 : 40\nDuration                                 : 5mn 5s\nBit rate mode                            : Variable\nBit rate                                 : 254 Kbps\nChannel(s)                               : 2 channels\nChannel positions                        : Front: L R\nSampling rate                            : 44.1 KHz\nCompression mode                         : Lossy\nStream size                              : 9.23 MiB (15%)\nEncoded date                             : UTC 2013-10-15 06:03:23\nTagged date                              : UTC 2013-10-15 06:03:23\n\nShared By Sbyky\n[IMG]http://cdn.piczend.com/images/X3Ag13N3/1379453786_saythanks.gif[/IMG]\n[IMG]http://cdn.piczend.com/images/gGqhX2S8/1379453780_keepseeding.gif[/IMG]","torrent":{"xt":"urn:btih:5e9565b69af2051c19c402bf7905eb62ca8ba0ac","amp;dn":"Avril+Lavigne+Ft.+Chad+Kroeger+-+Let+Me+Go+%5BMusic+Video%5D+720p+%5BS","amp;tr":["udp%3A%2F%2Ftracker.openbittorrent.com%3A80","udp%3A%2F%2Fopen.demonii.com%3A1337","udp%3A%2F%2Ftracker.coppersurfer.tk%3A6969","udp%3A%2F%2Fexodus.desync.com%3A6969"],"infoHash":"5e9565b69af2051c19c402bf7905eb62ca8ba0ac","infoHashBuffer":{"type":"Buffer","data":[94,149,101,182,154,242,5,28,25,196,2,191,121,5,235,98,202,139,160,172]},"announce":[],"urlList":[]}}